<?xml version="1.0" encoding="utf-8"?>
<!-- Generator: Adobe Illustrator 25.2.3, SVG Export Plug-In . SVG Version: 6.00 Build 0)  -->
<svg version="1.1" id="Layer_1" xmlns="http://www.w3.org/2000/svg" xmlns:xlink="http://www.w3.org/1999/xlink" x="0px" y="0px"
	 viewBox="0 0 207.7 73.2" style="enable-background:new 0 0 207.7 73.2;" xml:space="preserve">
<style type="text/css">
	.st0{fill:#231F20;}
	.st1{fill:#FF9E1B;}
</style>
<path class="st0" d="M204.7,45.2c-0.9,0.1-1.6-0.6-1.7-1.5c-0.1-0.9,0.6-1.6,1.5-1.7c0.1,0,0.2,0,0.3,0c0.9,0,1.6,0.7,1.6,1.6
	c0,0,0,0,0,0l0,0C206.3,44.5,205.6,45.2,204.7,45.2C204.7,45.3,204.7,45.3,204.7,45.2z M204.7,41.9c-1,0-1.8,0.8-1.8,1.7
	c0,1,0.8,1.8,1.7,1.8c1,0,1.8-0.8,1.8-1.7c0,0,0,0,0,0l0,0C206.4,42.7,205.6,41.9,204.7,41.9L204.7,41.9z M204.7,43.8h-0.4V43h0.4
	c0.1,0,0.3,0,0.4,0.1c0.1,0.1,0.1,0.2,0.1,0.3c0,0.1,0,0.2-0.1,0.3C204.9,43.8,204.8,43.8,204.7,43.8z M204.9,43.9
	c0.3-0.1,0.5-0.4,0.4-0.7c0-0.1-0.1-0.2-0.2-0.3c-0.1-0.1-0.3-0.2-0.5-0.2H204v1.7h0.2v-0.6h0.4l0.4,0.6h0.2L204.9,43.9L204.9,43.9
	L204.9,43.9z"/>
<path class="st0" d="M143.7,32.9c0-1.5,1.4-2.8,3.5-2.8c1.3,0,2.5,0.5,3.4,1.2l0.9-1.2c-1.2-1.1-2.8-1.6-4.4-1.6
	c-3.1,0-5.1,2.1-5.1,4.4c0,5.1,8.2,4.1,8.2,8.2c0,1.8-1.5,2.9-3.3,2.9c-1.6,0-3.1-0.7-4.3-1.8l-1,1.2c1.4,1.4,3.3,2.1,5.2,2.1
	c3.1,0,5-2,5-4.5C151.9,35.7,143.7,36.8,143.7,32.9L143.7,32.9z M159.5,32.9c0-1.5,1.4-2.8,3.5-2.8c1.3,0,2.5,0.5,3.4,1.2l0.9-1.2
	c-1.2-1.1-2.8-1.6-4.4-1.6c-3,0-5.1,2.1-5.1,4.4c0,5.1,8.2,4.1,8.2,8.2c0,1.8-1.5,2.9-3.3,2.9c-1.6,0-3.1-0.7-4.3-1.8l-1,1.2
	c1.4,1.4,3.3,2.1,5.2,2.1c3.1,0,5-2,5-4.5C167.7,35.7,159.5,36.8,159.5,32.9L159.5,32.9z M95.7,28.5c2.2-0.1,4.3,0.7,5.9,2.1
	l-0.9,1.2c-1.4-1.2-3.2-1.9-5-1.9c-3.6,0-6.6,2.9-6.6,6.5c0,0.1,0,0.2,0,0.4c0,3.9,2.8,7.2,6.7,7.2c2,0,3.9-0.8,5.3-2.2l0.9,1.2
	c-1.7,1.7-3.9,2.6-6.3,2.5c-4.6,0.1-8.3-3.6-8.4-8.2c0,0,0,0,0,0v-0.4c-0.1-4.5,3.5-8.3,8-8.4c0,0,0,0,0,0L95.7,28.5L95.7,28.5z
	 M174.1,28.8h9.8v1.5h-8.2v6h6.5v1.5h-6.5v6.1h8.6v1.5h-10.2L174.1,28.8L174.1,28.8z M126,28.8h9.8v1.5h-8.2v6h6.5v1.5h-6.5v6.1h8.6
	v1.5H126L126,28.8L126,28.8z M114.2,36.9c1.7,0.1,3.1-1.2,3.3-2.9c0-0.2,0-0.3,0-0.5c0.1-1.2-0.5-2.3-1.5-2.9
	c-0.7-0.3-1.5-0.5-2.3-0.4h-3.9v6.6L114.2,36.9z M108.1,28.8h5.4c1.1-0.1,2.1,0.1,3.1,0.4c2.3,1.3,3.2,4.2,1.9,6.5
	c-0.6,1-1.4,1.8-2.5,2.2l0,0c0.2,0.2,0.3,0.4,0.4,0.7l3.6,6.6h-1.9l-3.7-6.9h-4.7v6.9h-1.6L108.1,28.8L108.1,28.8z M195.5,30.2h-5.9
	v-1.5h13.5v1.5h-5.9v15h-1.6V30.2z"/>
<path class="st1" d="M42.7,27.9l3.9-6.3c-1-0.6-2-1.1-3-1.5L40.9,27C41.5,27.3,42.1,27.6,42.7,27.9L42.7,27.9z M45.6,30.5l5.9-4.4
	c-0.7-0.9-1.4-1.7-2.3-2.5l-5,5.4C44.7,29.5,45.2,30,45.6,30.5L45.6,30.5z M47.3,34l7.1-2c-0.3-1.1-0.7-2.1-1.2-3.1l-6.6,3.3
	C46.9,32.8,47.2,33.4,47.3,34z M39,26.4l1.4-7.2c-1.1-0.2-2.2-0.3-3.3-0.3v7.4C37.7,26.2,38.3,26.3,39,26.4z M47.7,37
	c0,0.3,0,0.7,0,1l7.3,0.7c0-0.5,0.1-1.1,0.1-1.7c0-0.6,0-1.1-0.1-1.7L47.7,36C47.7,36.3,47.7,36.7,47.7,37z M37,47.8L37,47.8v7.4
	l0,0c1.1,0,2.2-0.1,3.3-0.3L39,47.6C38.3,47.7,37.7,47.8,37,47.8z M46.6,41.8l6.6,3.3c0.5-1,0.9-2,1.2-3l-7.1-2
	C47.2,40.6,46.9,41.2,46.6,41.8L46.6,41.8z M44.2,44.9l5,5.5c0.8-0.8,1.6-1.6,2.2-2.5l-5.9-4.4C45.2,44,44.8,44.5,44.2,44.9
	L44.2,44.9z M40.9,47l2.7,6.9c1-0.4,2-0.9,3-1.5l-3.9-6.2C42.1,46.5,41.5,46.8,40.9,47z M43.5,20.1l3.2-8.4
	c-1.6-0.6-3.2-1.1-4.8-1.4l-1.6,8.9C41.4,19.4,42.5,19.7,43.5,20.1L43.5,20.1z M55.1,35.3l9-0.8c-0.2-1.7-0.5-3.3-0.9-4.9L54.4,32
	C54.7,33.1,54.9,34.2,55.1,35.3L55.1,35.3z M53.2,28.9l8.1-4c-0.7-1.5-1.6-2.9-2.6-4.3l-7.2,5.4C52.2,26.9,52.8,27.9,53.2,28.9
	L53.2,28.9z M49.2,23.6l6-6.6c-1.2-1.1-2.6-2.1-4-3l-4.7,7.6C47.5,22.2,48.4,22.9,49.2,23.6L49.2,23.6z M54.4,42l8.7,2.5
	c0.5-1.6,0.8-3.3,0.9-4.9l-9-0.8C55,39.8,54.8,40.9,54.4,42L54.4,42z M51.5,48l7.2,5.3c1-1.3,1.9-2.7,2.7-4.2l-8-4
	C52.8,46.1,52.2,47,51.5,48L51.5,48z M46.5,52.5l4.7,7.6c1.4-0.9,2.8-1.9,4-3l-6.1-6.7C48.4,51.2,47.5,51.8,46.5,52.5L46.5,52.5z
	 M40.3,54.9l1.7,8.8c1.6-0.3,3.3-0.8,4.8-1.4L43.5,54C42.5,54.4,41.4,54.7,40.3,54.9L40.3,54.9z M51.3,14l4.8-7.7
	c-1.9-1.2-3.9-2.2-6-3l-3.3,8.4C48.4,12.3,49.9,13,51.3,14L51.3,14z M58.7,20.6l7.2-5.5c-1.3-1.8-2.9-3.4-4.5-4.9L55.3,17
	C56.5,18.1,57.6,19.4,58.7,20.6L58.7,20.6z M63.1,29.5l8.7-2.5c-0.6-2.1-1.4-4.2-2.4-6.2l-8.1,4C62,26.3,62.7,27.9,63.1,29.5
	L63.1,29.5z M64.1,37c0,0.8,0,1.7-0.1,2.5l9,0.8c0.1-1.1,0.2-2.2,0.2-3.3s-0.1-2.2-0.2-3.3l-9,0.8C64.1,35.3,64.1,36.2,64.1,37
	L64.1,37z M42,10.3l1.7-8.9C41.5,1,39.2,0.8,37,0.8v9.1C38.7,9.9,40.3,10,42,10.3z M55.3,57l6.1,6.7c1.6-1.5,3.2-3.2,4.5-4.9
	l-7.2-5.5C57.6,54.7,56.5,55.9,55.3,57L55.3,57z M37,64.1L37,64.1v9.1l0,0c2.2,0,4.5-0.2,6.7-0.6L42,63.7C40.3,64,38.7,64.1,37,64.1
	L37,64.1z M46.8,62.3l3.3,8.5c2.1-0.8,4.1-1.8,6-3L51.3,60C49.9,60.9,48.4,61.7,46.8,62.3z M61.3,49.1l8.1,4c1-2,1.8-4.1,2.4-6.2
	l-8.7-2.5C62.7,46,62,47.6,61.3,49.1z M29.8,45l-5,5.5c0.8,0.8,1.7,1.4,2.7,2l3.9-6.3C30.8,45.8,30.3,45.4,29.8,45z M33.1,47.1
	L30.5,54c1,0.4,2.1,0.7,3.2,0.9l1.3-7.2C34.4,47.5,33.8,47.3,33.1,47.1L33.1,47.1z M27.4,41.8l-6.6,3.3c0.5,1,1.1,1.9,1.8,2.8
	l5.9-4.4C28,43,27.7,42.4,27.4,41.8L27.4,41.8z M26.3,38L19,38.7c0.1,1.1,0.3,2.2,0.6,3.3l7.1-2C26.5,39.3,26.4,38.7,26.3,38z
	 M28.4,30.5l-5.9-4.5c-0.7,0.9-1.3,1.8-1.8,2.8l6.6,3.3C27.7,31.6,28,31,28.4,30.5L28.4,30.5z M26.7,34.1l-7.1-2
	c-0.3,1.1-0.5,2.2-0.6,3.3l7.3,0.7C26.4,35.4,26.5,34.7,26.7,34.1z M35,26.5l-1.4-7.2c-1.1,0.2-2.2,0.5-3.2,0.9l2.7,6.9
	C33.7,26.8,34.4,26.6,35,26.5L35,26.5z M31.3,27.9l-3.9-6.3c-1,0.6-1.9,1.3-2.7,2l5,5.4C30.3,28.6,30.8,28.2,31.3,27.9L31.3,27.9z
	 M33.6,54.9L32,63.7c1.6,0.3,3.3,0.5,5,0.5v-9C35.9,55.2,34.8,55.1,33.6,54.9L33.6,54.9z M27.4,52.5l-4.7,7.7
	c1.4,0.9,2.9,1.6,4.5,2.2l3.2-8.4C29.4,53.6,28.4,53.1,27.4,52.5L27.4,52.5z M22.6,48l-7.2,5.4c1,1.3,2.1,2.6,3.4,3.7l6.1-6.7
	C24,49.7,23.2,48.8,22.6,48L22.6,48z M19.6,42l-8.7,2.5c0.5,1.6,1.1,3.2,1.8,4.7l8-4C20.3,44.1,19.9,43.1,19.6,42L19.6,42z M18.8,37
	c0-0.6,0-1.1,0.1-1.7l-9-0.8c-0.1,0.8-0.1,1.7-0.1,2.5c0,0.8,0,1.7,0.1,2.5l9-0.8C18.9,38.1,18.8,37.6,18.8,37L18.8,37z M24.8,23.6
	l-6-6.6c-1.2,1.1-2.4,2.4-3.4,3.7l7.2,5.4C23.2,25.3,23.9,24.4,24.8,23.6L24.8,23.6z M20.8,28.9l-8-4c-0.7,1.5-1.3,3.1-1.8,4.7
	l8.6,2.4C19.9,30.9,20.3,29.9,20.8,28.9L20.8,28.9z M30.4,20.1l-3.3-8.4c-1.6,0.6-3.1,1.3-4.5,2.2l4.7,7.6
	C28.4,21,29.4,20.5,30.4,20.1L30.4,20.1z M37,18.9L37,18.9v-9l0,0c-1.7,0-3.4,0.1-5,0.4l1.7,8.9C34.7,19,35.8,18.9,37,18.9L37,18.9z
	 M18.7,57.1l-6.1,6.7c1.7,1.5,3.5,2.8,5.4,4l4.8-7.8C21.3,59.1,20,58.1,18.7,57.1L18.7,57.1z M27.2,62.3L24,70.8
	c2.1,0.8,4.2,1.4,6.4,1.9l1.7-8.9C30.4,63.4,28.8,62.9,27.2,62.3L27.2,62.3z M10,39.5l-9,0.8c0.2,2.2,0.6,4.4,1.2,6.5l8.7-2.4
	C10.5,42.9,10.2,41.2,10,39.5L10,39.5z M12.7,49.1l-8.1,4c1,2,2.2,3.9,3.5,5.7l7.2-5.5C14.4,52,13.5,50.6,12.7,49.1z M10.9,29.5
	l-8.7-2.5c-0.6,2.1-1,4.3-1.2,6.5l9,0.8C10.1,32.8,10.4,31.1,10.9,29.5L10.9,29.5z M32,10.3l-1.7-8.9c-2.2,0.4-4.4,1-6.4,1.9
	l3.3,8.4C28.8,11.1,30.4,10.6,32,10.3L32,10.3z M22.7,13.9l-4.8-7.7c-1.9,1.2-3.7,2.5-5.3,4l6.1,6.8C19.9,15.9,21.2,14.9,22.7,13.9
	L22.7,13.9z M12.7,24.9l-8.1-4c1-2,2.2-3.9,3.5-5.7l7.2,5.5C14.3,22,13.5,23.4,12.7,24.9L12.7,24.9z"/>
</svg>
